<svg width="20" height="18" viewBox="0 0 20 18" fill="none" xmlns="http://www.w3.org/2000/svg">
<path d="M19.1419 7.64517L11.0569 0.606083C10.7636 0.351957 10.3885 0.212069 10.0005 0.212069C9.61238 0.212069 9.2373 0.351957 8.944 0.606083L0.860833 7.64058C0.612956 7.85368 0.436272 8.13756 0.354538 8.45406C0.272805 8.77056 0.289942 9.1045 0.403645 9.41097C0.517349 9.71744 0.722166 9.98175 0.990555 10.1683C1.25894 10.3549 1.57803 10.4549 1.90492 10.4548H2.89492V16.1839C2.8954 16.6094 3.06469 17.0173 3.36563 17.318C3.66656 17.6188 4.07454 17.7878 4.5 17.7881H6.79167C7.21697 17.7876 7.62471 17.6184 7.92545 17.3177C8.22618 17.017 8.39535 16.6092 8.39583 16.1839V13.8923C8.39589 13.6677 8.44299 13.4456 8.53408 13.2404C8.62518 13.0352 8.75826 12.8513 8.92475 12.7006C9.09154 12.5488 9.28869 12.4341 9.50315 12.3643C9.7176 12.2944 9.94446 12.2709 10.1687 12.2954C10.5777 12.3588 10.9494 12.5695 11.2139 12.8879C11.4783 13.2064 11.6171 13.6105 11.6042 14.0243V16.183C11.6047 16.6083 11.7738 17.016 12.0746 17.3168C12.3753 17.6175 12.783 17.7867 13.2083 17.7872H15.5C15.9253 17.7867 16.333 17.6175 16.6338 17.3168C16.9345 17.016 17.1037 16.6083 17.1042 16.183V10.4538H18.0942C18.4203 10.4536 18.7386 10.3538 19.0065 10.1677C19.2743 9.98164 19.4789 9.71816 19.5929 9.41257C19.7068 9.10698 19.7247 8.77387 19.6441 8.45784C19.5635 8.14181 19.3883 7.85795 19.1419 7.64425V7.64517Z" fill="black"/>
</svg>
