<svg width="10" height="8" viewBox="0 0 10 8" fill="none" xmlns="http://www.w3.org/2000/svg">
<path d="M4.57198 1.6644L4.99999 2.37323L5.42802 1.66441C5.57062 1.42825 5.8071 1.11436 6.15206 0.872606L5.86591 0.464316L6.15206 0.872606C6.50529 0.62505 6.90232 0.5 7.34375 0.5C8.59007 0.5 9.5 1.40666 9.5 2.61087C9.5 3.24472 9.22715 3.80669 8.64913 4.43874C8.05906 5.08396 7.20382 5.7465 6.1132 6.58873L6.1132 6.58873L6.1126 6.58919C5.7761 6.84906 5.39633 7.14234 5.00001 7.45523C4.60393 7.14256 4.22437 6.84942 3.8882 6.5898L3.88704 6.58891L3.88703 6.5889C2.7963 5.74659 1.94099 5.084 1.3509 4.43875C0.772853 3.80668 0.5 3.24472 0.5 2.61087C0.5 1.40666 1.40994 0.5 2.65625 0.5C3.09768 0.5 3.49471 0.62505 3.84794 0.872606L4.08345 0.536573L3.84794 0.872606C4.1929 1.11437 4.42938 1.42824 4.57198 1.6644Z" fill="#FF0000" stroke="black"/>
</svg>
